<?xml version="1.0" encoding="UTF-8"?>
<svg width="512px" height="512px" viewBox="0 0 512 512" version="1.1" xmlns="http://www.w3.org/2000/svg" xmlns:xlink="http://www.w3.org/1999/xlink">
    <title>notes-icon</title>
    <defs>
        <linearGradient x1="0%" y1="50%" x2="100%" y2="50%" id="linearGradient-1">
            <stop stop-color="#8DF49B" offset="0%"></stop>
            <stop stop-color="#589CF9" offset="100%"></stop>
        </linearGradient>
    </defs>
    <g id="Page-1" stroke="none" stroke-width="1" fill="none" fill-rule="evenodd">
        <g id="Group" fill="url(#linearGradient-1)" fill-rule="nonzero">
            <g id="notes">
                <path d="M452,0 L141.716,0 L0,141.716 L0,452 C0,485.084 26.916,512 60,512 L452,512 C485.084,512 512,485.084 512,452 L512,60 C512,26.916 485.084,0 452,0 Z M150,48.284 L150,130 C150,141.028 141.028,150 130,150 L48.284,150 L150,48.284 Z M472,452 C472,463.028 463.028,472 452,472 L60,472 C48.972,472 40,463.028 40,452 L40,190 L130,190 C163.084,190 190,163.084 190,130 L190,40 L452,40 C463.028,40 472,48.972 472,60 L472,452 Z M414.331,173.493 C402.964,162.152 387.893,155.921 371.852,155.921 C371.726,155.921 371.597,155.921 371.47,155.921 C355.287,156.022 340.144,162.449 328.84,174.007 L196.926,308.681 C189.231,316.397 183.354,325.939 179.928,336.282 L157.968,432.433 L254.402,410.742 C264.784,407.306 274.359,401.405 282.092,393.677 L414.854,258.141 C437.813,234.661 437.579,196.688 414.331,173.493 L414.331,173.493 Z M386.266,230.162 L251.278,367.479 L222.773,338.961 L357.428,201.986 C361.219,198.109 366.293,195.955 371.717,195.921722 C377.128,195.894 382.24,197.98 386.079,201.81 C393.869,209.582 393.948,222.306 386.266,230.162 L386.266,230.162 Z" id="Shape"></path>
            </g>
        </g>
    </g>
</svg>