<svg id="Layer_1" enable-background="new 0 0 512 512" height="512" viewBox="0 0 512 512" width="512" xmlns="http://www.w3.org/2000/svg" xmlns:xlink="http://www.w3.org/1999/xlink"><linearGradient id="SVGID_1_" gradientUnits="userSpaceOnUse" x1="0" x2="512" y1="256" y2="256"><stop offset="0" stop-color="#8df49b"/><stop offset="1" stop-color="#589cf9"/></linearGradient><path d="m452 0h-310.284l-141.716 141.716v310.284c0 33.084 26.916 60 60 60h392c33.084 0 60-26.916 60-60v-392c0-33.084-26.916-60-60-60zm-302 48.284v81.716c0 11.028-8.972 20-20 20h-81.716zm322 403.716c0 11.028-8.972 20-20 20h-392c-11.028 0-20-8.972-20-20v-262h90c33.084 0 60-26.916 60-60v-90h262c11.028 0 20 8.972 20 20zm-57.669-278.507c-11.367-11.341-26.438-17.572-42.479-17.572-.126 0-.255 0-.382.001-16.183.1-31.326 6.527-42.63 18.085l-131.914 134.674c-7.695 7.716-13.572 17.258-16.998 27.601l-21.96 96.151 96.434-21.691c10.382-3.436 19.957-9.337 27.69-17.065l132.762-135.536c22.959-23.48 22.725-61.453-.523-84.648zm-28.065 56.669-134.988 137.317-28.505-28.518 134.655-136.975c3.791-3.877 8.865-6.031 14.289-6.064 5.411-.028 10.523 2.058 14.362 5.888 7.79 7.772 7.869 20.496.187 28.352z" fill="url(#SVGID_1_)"/></svg>