<svg width="512" height="512" xmlns="http://www.w3.org/2000/svg"><defs><linearGradient x1="0%" y1="50%" x2="100%" y2="50%" id="a"><stop stop-color="#8DF49B" offset="0%"/><stop stop-color="#589CF9" offset="100%"/></linearGradient></defs><path d="M452 0H141.716L0 141.716V452c0 33.084 26.916 60 60 60h392c33.084 0 60-26.916 60-60V60c0-33.084-26.916-60-60-60ZM150 48.284V130c0 11.028-8.972 20-20 20H48.284L150 48.284ZM472 452c0 11.028-8.972 20-20 20H60c-11.028 0-20-8.972-20-20V190h90c33.084 0 60-26.916 60-60V40h262c11.028 0 20 8.972 20 20v392Zm-57.669-278.507c-11.367-11.341-26.438-17.572-42.479-17.572h-.382c-16.183.101-31.326 6.528-42.63 18.086L196.926 308.681a70.815 70.815 0 0 0-16.998 27.601l-21.96 96.151 96.434-21.691a70.865 70.865 0 0 0 27.69-17.065l132.762-135.536c22.959-23.48 22.725-61.453-.523-84.648Zm-28.065 56.669L251.278 367.479l-28.505-28.518 134.655-136.975a20.015 20.015 0 0 1 14.289-6.064c5.411-.028 10.523 2.058 14.362 5.888 7.79 7.772 7.869 20.496.187 28.352Z" fill="url(#a)" fill-rule="nonzero"/></svg>